<svg width="14" height="14" viewBox="0 0 14 14" fill="none" xmlns="http://www.w3.org/2000/svg">
<path d="M10.7713 8.88535L9.82868 7.94268L10.7713 7.00002C11.019 6.75239 11.2154 6.45841 11.3494 6.13487C11.4834 5.81132 11.5524 5.46455 11.5524 5.11435C11.5524 4.76415 11.4834 4.41738 11.3494 4.09383C11.2154 3.77029 11.019 3.47631 10.7713 3.22868C10.5237 2.98105 10.2297 2.78462 9.9062 2.65061C9.58266 2.51659 9.23588 2.44761 8.88568 2.44761C8.53548 2.44761 8.18871 2.51659 7.86517 2.65061C7.54162 2.78462 7.24765 2.98105 7.00002 3.22868L6.05735 4.17135L5.11468 3.22868L6.05735 2.28602C6.80956 1.54596 7.82372 1.13312 8.87894 1.13742C9.93415 1.14171 10.9449 1.5628 11.6911 2.30896C12.4372 3.05511 12.8583 4.06588 12.8626 5.1211C12.8669 6.17631 12.4541 7.19048 11.714 7.94268L10.7713 8.88535ZM8.88535 10.7713L7.94268 11.714C7.57236 12.0904 7.13118 12.3898 6.64459 12.5948C6.158 12.7999 5.63563 12.9065 5.1076 12.9087C4.57958 12.9108 4.05635 12.8084 3.56811 12.6073C3.07986 12.4063 2.63626 12.1105 2.26289 11.7371C1.88952 11.3638 1.59376 10.9202 1.39269 10.4319C1.19161 9.94368 1.0892 9.42045 1.09135 8.89243C1.0935 8.36441 1.20017 7.84203 1.40522 7.35544C1.61026 6.86885 1.90962 6.42767 2.28602 6.05735L3.22868 5.11468L4.17135 6.05735L3.22868 7.00002C2.98105 7.24765 2.78462 7.54162 2.65061 7.86517C2.51659 8.18871 2.44761 8.53548 2.44761 8.88568C2.44761 9.23588 2.51659 9.58266 2.65061 9.9062C2.78462 10.2297 2.98105 10.5237 3.22868 10.7713C3.47631 11.019 3.77029 11.2154 4.09383 11.3494C4.41738 11.4834 4.76415 11.5524 5.11435 11.5524C5.46455 11.5524 5.81132 11.4834 6.13487 11.3494C6.45841 11.2154 6.75239 11.019 7.00002 10.7713L7.94268 9.82868L8.88535 10.7713ZM8.88535 4.17135L9.82868 5.11468L5.11468 9.82802L4.17135 8.88535L8.88535 4.17202V4.17135ZM2.85002 0.528683L4.13802 0.18335L4.82802 2.76002L3.54068 3.10535L2.85002 0.52935V0.528683ZM9.17202 11.2407L10.4593 10.8954L11.15 13.4714L9.86202 13.8167L9.17202 11.2407ZM0.528683 2.85002L3.10468 3.54068L2.75935 4.82802L0.18335 4.13802L0.528683 2.85002ZM11.2407 9.17202L13.8167 9.86202L13.4714 11.15L10.8954 10.4593L11.2407 9.17202Z" fill="#ABB6B7"/>
</svg>
